<?xml version="1.0" encoding="utf-8"?>
<svg version="1.1" xmlns:xlink="http://www.w3.org/1999/xlink" width="38px" height="27px" xmlns="http://www.w3.org/2000/svg">
  <g transform="matrix(1 0 0 1 -945 -3629 )">
    <path d="M 14.9723958333333 12.2749399038462  C 16.0873263888889 11.3608774038462  17.4298611111111 10.9038461538462  19 10.9038461538462  C 20.5701388888889 10.9038461538462  21.9126736111111 11.3608774038462  23.0276041666667 12.2749399038462  C 24.1425347222222 13.1890024038462  24.7 14.2896634615385  24.7 15.5769230769231  C 24.7 16.8641826923077  24.1425347222222 17.96484375  23.0276041666667 18.87890625  C 21.9126736111111 19.79296875  20.5701388888889 20.25  19 20.25  C 17.4298611111111 20.25  16.0873263888889 19.79296875  14.9723958333333 18.87890625  C 13.8574652777778 17.96484375  13.3 16.8641826923077  13.3 15.5769230769231  C 13.3 14.2896634615385  13.8574652777778 13.1890024038462  14.9723958333333 12.2749399038462  Z M 28.5 4.15384615384615  L 32.9333333333333 4.15384615384615  C 34.3319444444444 4.15384615384615  35.5260416666667 4.55949519230769  36.515625 5.37079326923077  C 37.5052083333333 6.18209134615385  38 7.16105769230769  38 8.30769230769231  L 38 22.8461538461538  C 38 23.9927884615385  37.5052083333333 24.9717548076923  36.515625 25.7830528846154  C 35.5260416666667 26.5943509615385  34.3319444444444 27  32.9333333333333 27  L 5.06666666666667 27  C 3.66805555555556 27  2.47395833333333 26.5943509615385  1.484375 25.7830528846154  C 0.494791666666667 24.9717548076923  0 23.9927884615385  0 22.8461538461538  L 0 8.30769230769231  C 0 7.16105769230769  0.494791666666667 6.18209134615385  1.484375 5.37079326923077  C 2.47395833333333 4.55949519230769  3.66805555555556 4.15384615384615  5.06666666666667 4.15384615384615  L 9.5 4.15384615384615  L 10.509375 1.94711538461538  C 10.7600694444444 1.41706730769231  11.2185763888889 0.960036057692306  11.8848958333333 0.576021634615384  C 12.5512152777778 0.192007211538464  13.2340277777778 0  13.9333333333333 0  L 24.0666666666667 0  C 24.7659722222222 0  25.4487847222222 0.192007211538464  26.1151041666667 0.576021634615384  C 26.7814236111111 0.960036057692306  27.2399305555556 1.41706730769231  27.490625 1.94711538461538  L 28.5 4.15384615384615  Z M 12.7359375 20.7124399038462  C 14.4710069444444 22.1349158653846  16.5590277777778 22.8461538461538  19 22.8461538461538  C 21.4409722222222 22.8461538461538  23.5289930555556 22.1349158653846  25.2640625 20.7124399038462  C 26.9991319444444 19.2899639423077  27.8666666666667 17.578125  27.8666666666667 15.5769230769231  C 27.8666666666667 13.5757211538462  26.9991319444444 11.8638822115385  25.2640625 10.44140625  C 23.5289930555556 9.01893028846154  21.4409722222222 8.30769230769231  19 8.30769230769231  C 16.5590277777778 8.30769230769231  14.4710069444444 9.01893028846154  12.7359375 10.44140625  C 11.0008680555556 11.8638822115385  10.1333333333333 13.5757211538462  10.1333333333333 15.5769230769231  C 10.1333333333333 17.578125  11.0008680555556 19.2899639423077  12.7359375 20.7124399038462  Z " fill-rule="nonzero" fill="#000000" stroke="none" transform="matrix(1 0 0 1 945 3629 )" />
  </g>
</svg>