<?xml version="1.0" encoding="utf-8"?>
<svg version="1.1" xmlns:xlink="http://www.w3.org/1999/xlink" width="31px" height="21px" xmlns="http://www.w3.org/2000/svg">
  <g transform="matrix(1 0 0 1 -331 -2797 )">
    <path d="M 12.2143229166667 9.54717548076923  C 13.1238715277778 8.83623798076923  14.2190972222222 8.48076923076923  15.5 8.48076923076923  C 16.7809027777778 8.48076923076923  17.8761284722222 8.83623798076923  18.7856770833333 9.54717548076923  C 19.6952256944444 10.2581129807692  20.15 11.1141826923077  20.15 12.1153846153846  C 20.15 13.1165865384615  19.6952256944444 13.97265625  18.7856770833333 14.68359375  C 17.8761284722222 15.39453125  16.7809027777778 15.75  15.5 15.75  C 14.2190972222222 15.75  13.1238715277778 15.39453125  12.2143229166667 14.68359375  C 11.3047743055556 13.97265625  10.85 13.1165865384615  10.85 12.1153846153846  C 10.85 11.1141826923077  11.3047743055556 10.2581129807692  12.2143229166667 9.54717548076923  Z M 23.25 3.23076923076923  L 26.8666666666667 3.23076923076923  C 28.0076388888889 3.23076923076923  28.9817708333333 3.54627403846154  29.7890625 4.17728365384616  C 30.5963541666667 4.80829326923077  31 5.56971153846154  31 6.46153846153846  L 31 17.7692307692308  C 31 18.6610576923077  30.5963541666667 19.4224759615385  29.7890625 20.0534855769231  C 28.9817708333333 20.6844951923077  28.0076388888889 21  26.8666666666667 21  L 4.13333333333333 21  C 2.99236111111111 21  2.01822916666667 20.6844951923077  1.2109375 20.0534855769231  C 0.403645833333333 19.4224759615385  0 18.6610576923077  0 17.7692307692308  L 0 6.46153846153846  C 0 5.56971153846154  0.403645833333333 4.80829326923077  1.2109375 4.17728365384616  C 2.01822916666667 3.54627403846154  2.99236111111111 3.23076923076923  4.13333333333333 3.23076923076923  L 7.75 3.23076923076923  L 8.5734375 1.51442307692308  C 8.77795138888889 1.10216346153846  9.15199652777778 0.74669471153846  9.69557291666667 0.448016826923076  C 10.2391493055556 0.149338942307694  10.7961805555556 0  11.3666666666667 0  L 19.6333333333333 0  C 20.2038194444444 0  20.7608506944444 0.149338942307694  21.3044270833333 0.448016826923076  C 21.8480034722222 0.74669471153846  22.2220486111111 1.10216346153846  22.4265625 1.51442307692308  L 23.25 3.23076923076923  Z M 10.38984375 16.1096754807692  C 11.8052951388889 17.2160456730769  13.5086805555556 17.7692307692308  15.5 17.7692307692308  C 17.4913194444444 17.7692307692308  19.1947048611111 17.2160456730769  20.61015625 16.1096754807692  C 22.0256076388889 15.0033052884615  22.7333333333333 13.671875  22.7333333333333 12.1153846153846  C 22.7333333333333 10.5588942307692  22.0256076388889 9.22746394230769  20.61015625 8.12109375  C 19.1947048611111 7.01472355769231  17.4913194444444 6.46153846153846  15.5 6.46153846153846  C 13.5086805555556 6.46153846153846  11.8052951388889 7.01472355769231  10.38984375 8.12109375  C 8.97439236111111 9.22746394230769  8.26666666666667 10.5588942307692  8.26666666666667 12.1153846153846  C 8.26666666666667 13.671875  8.97439236111111 15.0033052884615  10.38984375 16.1096754807692  Z " fill-rule="nonzero" fill="#000000" stroke="none" transform="matrix(1 0 0 1 331 2797 )" />
  </g>
</svg>