<?xml version="1.0" encoding="utf-8"?>
<svg version="1.1" xmlns:xlink="http://www.w3.org/1999/xlink" width="72px" height="75px" xmlns="http://www.w3.org/2000/svg">
  <g transform="matrix(1 0 0 1 -1747 -3212 )">
    <path d="M 1783 3212  C 1803.16 3212  1819 3228.5  1819 3249.5  C 1819 3270.5  1803.16 3287  1783 3287  C 1762.84 3287  1747 3270.5  1747 3249.5  C 1747 3228.5  1762.84 3212  1783 3212  Z " fill-rule="nonzero" fill="#ffffff" stroke="none" />
    <path d="M 1783 3212.5  C 1802.88 3212.5  1818.5 3228.78  1818.5 3249.5  C 1818.5 3270.22  1802.88 3286.5  1783 3286.5  C 1763.12 3286.5  1747.5 3270.22  1747.5 3249.5  C 1747.5 3228.78  1763.12 3212.5  1783 3212.5  Z " stroke-width="1" stroke="#797979" fill="none" />
  </g>
</svg>