<?xml version="1.0" encoding="utf-8"?>
<svg version="1.1" xmlns:xlink="http://www.w3.org/1999/xlink" width="31px" height="25px" xmlns="http://www.w3.org/2000/svg">
  <g transform="matrix(1 0 0 1 -978 -2782 )">
    <path d="M 12.2143229166667 11.3656850961538  C 13.1238715277778 10.5193309294872  14.2190972222222 10.0961538461538  15.5 10.0961538461538  C 16.7809027777778 10.0961538461538  17.8761284722222 10.5193309294872  18.7856770833333 11.3656850961538  C 19.6952256944444 12.2120392628205  20.15 13.2311698717949  20.15 14.4230769230769  C 20.15 15.614983974359  19.6952256944444 16.6341145833333  18.7856770833333 17.48046875  C 17.8761284722222 18.3268229166667  16.7809027777778 18.75  15.5 18.75  C 14.2190972222222 18.75  13.1238715277778 18.3268229166667  12.2143229166667 17.48046875  C 11.3047743055556 16.6341145833333  10.85 15.614983974359  10.85 14.4230769230769  C 10.85 13.2311698717949  11.3047743055556 12.2120392628205  12.2143229166667 11.3656850961538  Z M 23.25 3.84615384615385  L 26.8666666666667 3.84615384615385  C 28.0076388888889 3.84615384615385  28.9817708333333 4.22175480769231  29.7890625 4.97295673076923  C 30.5963541666667 5.72415865384615  31 6.63060897435897  31 7.69230769230769  L 31 21.1538461538462  C 31 22.2155448717949  30.5963541666667 23.1219951923077  29.7890625 23.8731971153846  C 28.9817708333333 24.6243990384615  28.0076388888889 25  26.8666666666667 25  L 4.13333333333333 25  C 2.99236111111111 25  2.01822916666667 24.6243990384615  1.2109375 23.8731971153846  C 0.403645833333333 23.1219951923077  0 22.2155448717949  0 21.1538461538462  L 0 7.69230769230769  C 0 6.63060897435897  0.403645833333333 5.72415865384615  1.2109375 4.97295673076923  C 2.01822916666667 4.22175480769231  2.99236111111111 3.84615384615385  4.13333333333333 3.84615384615385  L 7.75 3.84615384615385  L 8.5734375 1.80288461538461  C 8.77795138888889 1.31209935897436  9.15199652777778 0.888922275641024  9.69557291666667 0.533353365384615  C 10.2391493055556 0.177784455128208  10.7961805555556 0  11.3666666666667 0  L 19.6333333333333 0  C 20.2038194444444 0  20.7608506944444 0.177784455128208  21.3044270833333 0.533353365384615  C 21.8480034722222 0.888922275641024  22.2220486111111 1.31209935897436  22.4265625 1.80288461538461  L 23.25 3.84615384615385  Z M 10.38984375 19.1781850961538  C 11.8052951388889 20.4952924679487  13.5086805555556 21.1538461538462  15.5 21.1538461538462  C 17.4913194444444 21.1538461538462  19.1947048611111 20.4952924679487  20.61015625 19.1781850961538  C 22.0256076388889 17.861077724359  22.7333333333333 16.2760416666667  22.7333333333333 14.4230769230769  C 22.7333333333333 12.5701121794872  22.0256076388889 10.9850761217949  20.61015625 9.66796875  C 19.1947048611111 8.35086137820513  17.4913194444444 7.69230769230769  15.5 7.69230769230769  C 13.5086805555556 7.69230769230769  11.8052951388889 8.35086137820513  10.38984375 9.66796875  C 8.97439236111111 10.9850761217949  8.26666666666667 12.5701121794872  8.26666666666667 14.4230769230769  C 8.26666666666667 16.2760416666667  8.97439236111111 17.861077724359  10.38984375 19.1781850961538  Z " fill-rule="nonzero" fill="#000000" stroke="none" transform="matrix(1 0 0 1 978 2782 )" />
  </g>
</svg>